<svg width="261" height="240" viewBox="0 0 261 240" fill="none" xmlns="http://www.w3.org/2000/svg">
<path d="M6.27392 96.0628C-13.2338 50.8089 16.8884 31.7134 40.1255 30.667C63.3626 29.6206 83.1571 56.0406 117.869 51.8552C152.582 47.6698 134.221 9.4787 201.064 0.846448C267.906 -7.78581 271.923 51.8552 246.677 77.4903C221.432 103.125 193.318 107.573 190.449 133.208C187.581 158.843 225.449 178.2 196.187 214.56C166.925 250.92 91.4766 248.304 62.502 206.713C33.5273 165.121 64.2232 172.445 62.502 145.764C60.7807 119.082 25.7816 141.317 6.27392 96.0628Z" fill="url(#paint0_linear_109_3)"/>
<defs>
<linearGradient id="paint0_linear_109_3" x1="-41" y1="16.5" x2="305.5" y2="251" gradientUnits="userSpaceOnUse">
<stop stop-color="#FFC700" stop-opacity="0.7"/>
<stop offset="1" stop-color="#B5F00C" stop-opacity="0.3"/>
</linearGradient>
</defs>
</svg>
