<svg width="80" height="28" viewBox="0 0 80 28" fill="none" xmlns="http://www.w3.org/2000/svg">
<rect width="80" height="28" fill="#252F3E"/>
<path d="M14.7275 12.1419C14.7275 12.4902 14.7644 12.7719 14.829 12.979C14.9028 13.1861 14.9946 13.4118 15.1238 13.6562C15.1699 13.7315 15.1884 13.8067 15.1884 13.8727C15.1884 13.9666 15.133 14.0605 15.0136 14.155L14.4332 14.5499C14.3501 14.6065 14.2676 14.6345 14.1938 14.6345C14.1015 14.6345 14.0098 14.5872 13.9175 14.5027C13.7882 14.3615 13.678 14.211 13.5857 14.0605C13.4934 13.9007 13.4017 13.7222 13.3001 13.5058C12.5819 14.3708 11.679 14.8037 10.5921 14.8037C9.81841 14.8037 9.2011 14.5779 8.74995 14.1264C8.2988 13.6749 8.0686 13.0729 8.0686 12.3204C8.0686 11.5212 8.34495 10.872 8.90687 10.3832C9.4688 9.89433 10.2148 9.64933 11.1632 9.64933C11.4765 9.64933 11.799 9.67733 12.1394 9.72458C12.4798 9.77183 12.8299 9.84708 13.1986 9.93167V9.24508C13.1986 8.5305 13.0515 8.03175 12.7659 7.74008C12.4711 7.44842 11.9738 7.30725 11.2648 7.30725C10.9423 7.30725 10.6111 7.34458 10.2701 7.42975C9.92918 7.51433 9.59803 7.61758 9.27553 7.74942C9.12841 7.81533 9.01764 7.85267 8.95303 7.87192C8.88841 7.89058 8.84226 7.89992 8.80591 7.89992C8.67668 7.89992 8.61264 7.806 8.61264 7.60825V7.14742C8.61264 6.99692 8.6311 6.88433 8.67726 6.81842C8.72341 6.7525 8.80649 6.68658 8.93514 6.62067C9.25764 6.4515 9.64418 6.31033 10.0959 6.19717C10.5471 6.07467 11.0259 6.01867 11.5324 6.01867C12.6286 6.01867 13.4299 6.27242 13.9457 6.7805C14.4523 7.28858 14.7101 8.05975 14.7101 9.094V12.1413L14.7275 12.1419ZM10.9878 13.5711C11.2919 13.5711 11.6051 13.5145 11.9363 13.4019C12.268 13.2893 12.5628 13.0822 12.8115 12.7999C12.9586 12.6214 13.0694 12.4237 13.1248 12.1979C13.1801 11.9722 13.2171 11.6992 13.2171 11.3795V10.9846C12.95 10.9187 12.6644 10.8621 12.3696 10.8247C12.0748 10.7874 11.7892 10.7682 11.5036 10.7682C10.8863 10.7682 10.4351 10.8907 10.1311 11.1444C9.82707 11.3982 9.67995 11.7558 9.67995 12.2259C9.67995 12.6681 9.79072 12.9971 10.0209 13.2228C10.2419 13.4585 10.5644 13.5711 10.9878 13.5711ZM18.384 14.5872C18.2184 14.5872 18.1076 14.5592 18.0338 14.4933C17.9599 14.4367 17.8959 14.3055 17.8405 14.1264L15.6759 6.85633C15.6205 6.6685 15.5928 6.546 15.5928 6.48008C15.5928 6.32958 15.6667 6.245 15.8138 6.245H16.7167C16.8915 6.245 17.0115 6.273 17.0761 6.33892C17.1499 6.3955 17.2048 6.52675 17.2601 6.70583L18.8075 12.9323L20.244 6.70583C20.2901 6.518 20.3455 6.3955 20.4188 6.33892C20.4926 6.28233 20.6213 6.245 20.7874 6.245H21.5242C21.699 6.245 21.819 6.273 21.8928 6.33892C21.9667 6.3955 22.0307 6.52675 22.0676 6.70583L23.5226 13.0076L25.1161 6.70583C25.1715 6.518 25.2361 6.3955 25.3001 6.33892C25.374 6.28233 25.4934 6.245 25.6596 6.245H26.5163C26.6634 6.245 26.7465 6.32025 26.7465 6.48008C26.7465 6.52733 26.7373 6.574 26.728 6.63058C26.7188 6.68717 26.7003 6.76242 26.6634 6.86567L24.444 14.1357C24.3886 14.3236 24.324 14.4461 24.2507 14.5027C24.1774 14.5592 24.0574 14.5966 23.9005 14.5966H23.1084C22.9336 14.5966 22.8136 14.5686 22.7398 14.5027C22.6659 14.4367 22.6019 14.3148 22.5649 14.1264L21.1376 8.05975L19.7196 14.1171C19.6734 14.3049 19.618 14.4274 19.5448 14.4933C19.4709 14.5592 19.3423 14.5872 19.1761 14.5872H18.384ZM30.219 14.841C29.7401 14.841 29.2613 14.7844 28.8009 14.6718C28.3405 14.5592 27.9811 14.4368 27.7417 14.2956C27.5946 14.211 27.493 14.1171 27.4561 14.0325C27.4192 13.9479 27.4007 13.854 27.4007 13.7694V13.2899C27.4007 13.0922 27.4746 12.9982 27.6125 12.9982C27.6678 12.9982 27.7232 13.0076 27.778 13.0262C27.8334 13.0449 27.9159 13.0828 28.0082 13.1202C28.3215 13.2613 28.6619 13.3739 29.0213 13.4492C29.3899 13.5244 29.7488 13.5617 30.1174 13.5617C30.6978 13.5617 31.149 13.4585 31.4623 13.2514C31.7755 13.0443 31.9411 12.7433 31.9411 12.3577C31.9411 12.0947 31.858 11.8783 31.6924 11.6992C31.5269 11.5207 31.2136 11.3608 30.7624 11.2103L29.4269 10.7868C28.7548 10.5704 28.2574 10.2508 27.9534 9.82725C27.6494 9.41367 27.493 8.95283 27.493 8.46342C27.493 8.0685 27.5761 7.72025 27.7417 7.41925C27.9073 7.11825 28.1288 6.85517 28.4046 6.64808C28.6809 6.43167 28.9942 6.27183 29.3623 6.15925C29.7309 6.04725 30.1174 6 30.523 6C30.7255 6 30.9373 6.00933 31.1403 6.03733C31.3521 6.06533 31.5453 6.10325 31.7392 6.14058C31.9232 6.18783 32.0986 6.2345 32.2642 6.29108C32.4298 6.34767 32.559 6.40367 32.6513 6.46025C32.7805 6.5355 32.8723 6.61075 32.9276 6.69533C32.983 6.77058 33.0107 6.87383 33.0107 7.00567V7.44783C33.0107 7.64558 32.9369 7.74883 32.799 7.74883C32.7251 7.74883 32.6057 7.7115 32.4488 7.63625C31.9238 7.39183 31.3342 7.26933 30.6805 7.26933C30.1555 7.26933 29.7413 7.35392 29.4557 7.53242C29.1701 7.71092 29.023 7.98392 29.023 8.3695C29.023 8.63258 29.1153 8.85833 29.2994 9.03742C29.4834 9.21592 29.8244 9.395 30.3124 9.55483L31.6203 9.97833C32.2832 10.1947 32.7626 10.4958 33.0476 10.8813C33.3326 11.2669 33.4711 11.7091 33.4711 12.1979C33.4711 12.6022 33.388 12.9691 33.2317 13.2888C33.0661 13.6084 32.8446 13.8907 32.5596 14.1165C32.274 14.3516 31.933 14.5207 31.5373 14.6432C31.1213 14.7751 30.6886 14.841 30.219 14.841Z" fill="white"/>
<path d="M31.9597 19.4122C28.9297 21.6977 24.5272 22.911 20.7414 22.911C15.4366 22.911 10.6562 20.9079 7.04581 17.5782C6.76024 17.3151 7.01812 16.9575 7.35908 17.1646C11.2643 19.4781 16.081 20.8799 21.0639 20.8799C24.4256 20.8799 28.1191 20.1653 31.5172 18.6976C32.0243 18.4625 32.457 19.0359 31.9597 19.4122ZM33.2214 17.9451C32.8343 17.437 30.661 17.7007 29.6756 17.8226C29.3808 17.8599 29.3347 17.5969 29.6018 17.3991C31.3331 16.1578 34.1791 16.5148 34.5108 16.9289C34.8425 17.3524 34.4185 20.2586 32.7979 21.6504C32.5493 21.8669 32.3099 21.7537 32.42 21.4719C32.7887 20.5409 33.6085 18.4433 33.2214 17.9451Z" fill="#FF9900"/>
<path d="M43.6113 18H41.7988L44.5605 10H46.7402L49.498 18H47.6855L45.6816 11.8281H45.6191L43.6113 18ZM43.498 14.8555H47.7793V16.1758H43.498V14.8555ZM54.8076 18L52.5186 10H54.3662L55.6904 15.5586H55.7568L57.2178 10H58.7998L60.2568 15.5703H60.3271L61.6514 10H63.499L61.21 18H59.5615L58.0381 12.7695H57.9756L56.4561 18H54.8076ZM71.29 12.3008C71.2588 11.9857 71.1247 11.7409 70.8877 11.5664C70.6507 11.3919 70.3291 11.3047 69.9229 11.3047C69.6468 11.3047 69.4137 11.3437 69.2236 11.4219C69.0335 11.4974 68.8877 11.6029 68.7861 11.7383C68.6872 11.8737 68.6377 12.0273 68.6377 12.1992C68.6325 12.3424 68.6624 12.4674 68.7275 12.5742C68.7952 12.681 68.8877 12.7734 69.0049 12.8516C69.1221 12.9271 69.2575 12.9935 69.4111 13.0508C69.5648 13.1055 69.7288 13.1523 69.9033 13.1914L70.6221 13.3633C70.971 13.4414 71.2913 13.5456 71.583 13.6758C71.8747 13.806 72.1273 13.9661 72.3408 14.1562C72.5544 14.3464 72.7197 14.5703 72.8369 14.8281C72.9567 15.0859 73.0179 15.3815 73.0205 15.7148C73.0179 16.2044 72.8929 16.6289 72.6455 16.9883C72.4007 17.3451 72.0465 17.6224 71.583 17.8203C71.1221 18.0156 70.5661 18.1133 69.915 18.1133C69.2692 18.1133 68.7067 18.0143 68.2275 17.8164C67.751 17.6185 67.3786 17.3255 67.1104 16.9375C66.8447 16.5469 66.7054 16.0638 66.6924 15.4883H68.3291C68.3473 15.7565 68.4242 15.9805 68.5596 16.1602C68.6976 16.3372 68.8812 16.4714 69.1104 16.5625C69.3421 16.651 69.6038 16.6953 69.8955 16.6953C70.182 16.6953 70.4307 16.6536 70.6416 16.5703C70.8551 16.487 71.0205 16.3711 71.1377 16.2227C71.2549 16.0742 71.3135 15.9036 71.3135 15.7109C71.3135 15.5312 71.2601 15.3802 71.1533 15.2578C71.0492 15.1354 70.8955 15.0312 70.6924 14.9453C70.4919 14.8594 70.2458 14.7812 69.9541 14.7109L69.083 14.4922C68.4085 14.3281 67.876 14.0716 67.4854 13.7227C67.0947 13.3737 66.9007 12.9036 66.9033 12.3125C66.9007 11.8281 67.0296 11.4049 67.29 11.043C67.5531 10.681 67.9137 10.3984 68.3721 10.1953C68.8304 9.99219 69.3512 9.89062 69.9346 9.89062C70.5283 9.89062 71.0465 9.99219 71.4893 10.1953C71.9346 10.3984 72.2809 10.681 72.5283 11.043C72.7757 11.4049 72.9033 11.8242 72.9111 12.3008H71.29Z" fill="white"/>
</svg>
