<svg width="64" height="28" viewBox="0 0 64 28" fill="none" xmlns="http://www.w3.org/2000/svg">
<rect width="64" height="28" fill="#6AB033"/>
<path d="M6 14.39V12.444L16.069 6.84942V9.49903L8.63856 13.3822L8.7068 13.2259V13.5994L8.63856 13.4517L16.069 17.3263V19.9846L6 14.39Z" fill="white"/>
<path d="M23.6621 17.8243V17.0946C23.6621 16.527 23.7682 16.0023 23.9805 15.5203C24.1968 15.0383 24.5093 14.6509 24.9182 14.3581C25.327 14.0653 25.8263 13.9189 26.416 13.9189C27.0176 13.9189 27.5228 14.0653 27.9316 14.3581C28.3444 14.6464 28.655 15.0315 28.8634 15.5135C29.0757 15.991 29.1818 16.518 29.1818 17.0946V17.8243C29.1818 18.3919 29.0757 18.9167 28.8634 19.3986C28.6511 19.8806 28.3385 20.268 27.9257 20.5608C27.5129 20.8536 27.0097 21 26.416 21C25.8185 21 25.3152 20.8536 24.9064 20.5608C24.4975 20.268 24.1869 19.8806 23.9746 19.3986C23.7663 18.9167 23.6621 18.3919 23.6621 17.8243ZM25.5433 17.0946V17.8243C25.5433 18.1126 25.6042 18.3896 25.7261 18.6554C25.8519 18.9212 26.0819 19.0541 26.416 19.0541C26.7581 19.0541 26.9881 18.9257 27.106 18.6689C27.224 18.4077 27.2829 18.1261 27.2829 17.8243V17.0946C27.2829 16.7928 27.2259 16.509 27.1119 16.2432C27.0018 15.973 26.7699 15.8378 26.416 15.8378C26.0858 15.8378 25.8578 15.973 25.732 16.2432C25.6062 16.509 25.5433 16.7928 25.5433 17.0946ZM17.3993 9.90541V9.17567C17.3993 8.5991 17.5074 8.07207 17.7236 7.59459C17.9438 7.11261 18.2583 6.72748 18.6672 6.43919C19.0761 6.1464 19.5714 6 20.1533 6C20.7548 6 21.26 6.1464 21.6688 6.43919C22.0816 6.72748 22.3942 7.11261 22.6065 7.59459C22.8188 8.07207 22.9249 8.5991 22.9249 9.17567V9.90541C22.9249 10.482 22.8168 11.009 22.6006 11.4865C22.3883 11.964 22.0757 12.3446 21.6629 12.6284C21.2501 12.9122 20.7469 13.0541 20.1533 13.0541C19.5596 13.0541 19.0564 12.9099 18.6436 12.6216C18.2347 12.3333 17.9241 11.9504 17.7118 11.473C17.5035 10.9955 17.3993 10.473 17.3993 9.90541ZM19.2982 9.17567V9.90541C19.2982 10.2072 19.3591 10.4887 19.481 10.75C19.6068 11.0068 19.8309 11.1351 20.1533 11.1351C20.4992 11.1351 20.7292 11.0068 20.8432 10.75C20.9612 10.4887 21.0201 10.2072 21.0201 9.90541V9.17567C21.0201 8.87387 20.9651 8.59009 20.855 8.32432C20.7449 8.05405 20.511 7.91892 20.1533 7.91892C19.823 7.91892 19.597 8.05631 19.4751 8.33108C19.3572 8.60586 19.2982 8.88739 19.2982 9.17567ZM18.2898 20.4189L26.593 6.58108H28.2029L19.8997 20.4189H18.2898Z" fill="white"/>
<path d="M36.5869 18V10H41.9775V11.3945H38.2783V13.3008H41.7002V14.6953H38.2783V16.6055H41.9932V18H36.5869ZM46.5254 10H48.1973V15.5781C48.1973 16.0937 48.0814 16.5417 47.8496 16.9219C47.6204 17.3021 47.3014 17.5951 46.8926 17.8008C46.4837 18.0065 46.0085 18.1094 45.4668 18.1094C44.985 18.1094 44.5475 18.0247 44.1543 17.8555C43.7637 17.6836 43.4538 17.4232 43.2246 17.0742C42.9954 16.7227 42.8822 16.2812 42.8848 15.75H44.5684C44.5736 15.9609 44.6165 16.1419 44.6973 16.293C44.7806 16.4414 44.8939 16.556 45.0371 16.6367C45.1829 16.7148 45.3548 16.7539 45.5527 16.7539C45.7611 16.7539 45.9368 16.7096 46.0801 16.6211C46.2259 16.5299 46.3366 16.3971 46.4121 16.2227C46.4876 16.0482 46.5254 15.8333 46.5254 15.5781V10ZM53.9355 12.3008C53.9043 11.9857 53.7702 11.7409 53.5332 11.5664C53.2962 11.3919 52.9746 11.3047 52.5684 11.3047C52.2923 11.3047 52.0592 11.3437 51.8691 11.4219C51.679 11.4974 51.5332 11.6029 51.4316 11.7383C51.3327 11.8737 51.2832 12.0273 51.2832 12.1992C51.278 12.3424 51.3079 12.4674 51.373 12.5742C51.4408 12.681 51.5332 12.7734 51.6504 12.8516C51.7676 12.9271 51.903 12.9935 52.0566 13.0508C52.2103 13.1055 52.3743 13.1523 52.5488 13.1914L53.2676 13.3633C53.6165 13.4414 53.9368 13.5456 54.2285 13.6758C54.5202 13.806 54.7728 13.9661 54.9863 14.1562C55.1999 14.3464 55.3652 14.5703 55.4824 14.8281C55.6022 15.0859 55.6634 15.3815 55.666 15.7148C55.6634 16.2044 55.5384 16.6289 55.291 16.9883C55.0462 17.3451 54.6921 17.6224 54.2285 17.8203C53.7676 18.0156 53.2116 18.1133 52.5605 18.1133C51.9147 18.1133 51.3522 18.0143 50.873 17.8164C50.3965 17.6185 50.0241 17.3255 49.7559 16.9375C49.4902 16.5469 49.3509 16.0638 49.3379 15.4883H50.9746C50.9928 15.7565 51.0697 15.9805 51.2051 16.1602C51.3431 16.3372 51.5267 16.4714 51.7559 16.5625C51.9876 16.651 52.2493 16.6953 52.541 16.6953C52.8275 16.6953 53.0762 16.6536 53.2871 16.5703C53.5007 16.487 53.666 16.3711 53.7832 16.2227C53.9004 16.0742 53.959 15.9036 53.959 15.7109C53.959 15.5312 53.9056 15.3802 53.7988 15.2578C53.6947 15.1354 53.541 15.0312 53.3379 14.9453C53.1374 14.8594 52.8913 14.7812 52.5996 14.7109L51.7285 14.4922C51.054 14.3281 50.5215 14.0716 50.1309 13.7227C49.7402 13.3737 49.5462 12.9036 49.5488 12.3125C49.5462 11.8281 49.6751 11.4049 49.9355 11.043C50.1986 10.681 50.5592 10.3984 51.0176 10.1953C51.4759 9.99219 51.9967 9.89062 52.5801 9.89062C53.1738 9.89062 53.6921 9.99219 54.1348 10.1953C54.5801 10.3984 54.9264 10.681 55.1738 11.043C55.4212 11.4049 55.5488 11.8242 55.5566 12.3008H53.9355Z" fill="white"/>
</svg>
