<svg width="42" height="40" viewBox="0 0 42 40" fill="none" xmlns="http://www.w3.org/2000/svg">
<path d="M22.9325 1.25571L27.6499 10.8145C27.978 11.4794 28.6123 11.94 29.346 12.0465L39.8951 13.5794C41.743 13.8481 42.4803 16.1183 41.1436 17.4209L33.5104 24.8614C32.9799 25.3788 32.7373 26.1247 32.863 26.855L34.6646 37.3613C34.9805 39.2014 33.0488 40.6043 31.3963 39.7362L21.9614 34.7762C21.3053 34.4316 20.521 34.4316 19.8648 34.7762L10.4299 39.7362C8.77744 40.6052 6.84578 39.2014 7.16161 37.3613L8.96328 26.855C9.08891 26.1247 8.84636 25.3788 8.3159 24.8614L0.682616 17.4209C-0.654015 16.1174 0.0832259 13.8473 1.93113 13.5794L12.4802 12.0465C13.214 11.94 13.8483 11.4794 14.1763 10.8145L18.8938 1.25571C19.7191 -0.41857 22.1062 -0.41857 22.9325 1.25571Z" fill="url(#paint0_linear_85_30)"/>
<defs>
<linearGradient id="paint0_linear_85_30" x1="20.9131" y1="0" x2="20.9131" y2="40" gradientUnits="userSpaceOnUse">
<stop stop-color="#ED8A19"/>
<stop offset="0.515625" stop-color="#EBB735"/>
<stop offset="1" stop-color="#F5F949"/>
</linearGradient>
</defs>
</svg>
