<svg width="42" height="42" viewBox="0 0 42 42" fill="none" xmlns="http://www.w3.org/2000/svg">
<path d="M10 0C4.48867 0 0 4.48867 0 10V32C0 37.5113 4.48867 42 10 42H32C37.5113 42 42 37.5113 42 32V10C42 4.48867 37.5113 0 32 0H10ZM9 12H33C33.18 12 33.3498 12.0203 33.5098 12.0703L23.6797 21.8906C22.1997 23.3706 19.7905 23.3706 18.3105 21.8906L8.49023 12.0703C8.65023 12.0203 8.82 12 9 12ZM7.07031 13.4902L14.5898 21L7.07031 28.5098C7.02031 28.3498 7 28.18 7 28V14C7 13.82 7.02031 13.6502 7.07031 13.4902ZM34.9297 13.4902C34.9797 13.6502 35 13.82 35 14V28C35 28.18 34.9797 28.3498 34.9297 28.5098L27.4004 21L34.9297 13.4902ZM16 22.4102L16.8906 23.3105C18.0206 24.4405 19.5102 25 20.9902 25C22.4802 25 23.9598 24.4405 25.0898 23.3105L25.9902 22.4102L33.5098 29.9297C33.3498 29.9797 33.18 30 33 30H9C8.82 30 8.65023 29.9797 8.49023 29.9297L16 22.4102Z" fill="url(#paint0_linear_66_11)"/>
<defs>
<linearGradient id="paint0_linear_66_11" x1="21" y1="0" x2="21" y2="42" gradientUnits="userSpaceOnUse">
<stop stop-color="#0039A9"/>
<stop offset="1" stop-color="#27ACB5"/>
</linearGradient>
</defs>
</svg>
