<svg width="119" height="28" viewBox="0 0 119 28" fill="none" xmlns="http://www.w3.org/2000/svg">
<rect width="118" height="28" fill="#B71C1C"/>
<path d="M15.0227 18.0405V21.1853L17.5318 21.1822V18.0437L16.2791 19.3032L15.0227 18.0405Z" fill="white"/>
<path d="M32.9802 12.6675C32.869 12.5286 32.4525 12.4451 32.4525 12.4451L31.9524 13.4452L32.0077 12.3339C32.0077 12.3339 28.9791 11.1114 26.5624 10.5278C24.1457 9.9442 22.4288 9.71679 21.5066 9.69481C20.8395 9.67847 19.5611 9.75009 19.5611 9.75009L20.6447 10.7778C20.6447 10.7778 19.2834 10.2219 18.7833 10.0278C18.2833 9.83364 17.5056 9.83301 17.1161 9.80537C16.7272 9.77773 16.3937 9.9442 16.3937 9.9442C16.3937 9.9442 16.0324 10.2219 16.8661 12.0832C17.5496 13.6098 19.2024 14.5741 19.7759 14.8725C16.0588 14.0659 15.6436 10.4719 15.6436 10.4719C15.6436 10.4719 13.3802 10.4487 10.1424 11.5832C6.48372 12.8654 4.30762 15.3342 4.30762 15.3342C4.30762 15.3342 7.19736 14.3617 9.64234 15.0283C12.0873 15.6948 13.0956 17.4079 13.0956 17.4079L13.1628 15.5189H15.0072L16.4213 17.2232L17.5257 15.5415H19.3921C19.3921 15.5415 19.4015 15.5415 19.4147 15.5409V19.2969C19.4147 19.2969 20.6799 18.251 21.533 17.8345C22.6719 17.2785 25.3117 17.4456 25.3117 17.4456C25.3117 17.4456 25.2696 17.1503 25.1138 16.8381C24.8926 16.3959 25.4737 16.2508 25.4737 16.2508C25.4737 16.2508 30.674 15.1118 31.257 15.0006C31.8406 14.8894 32.2571 14.6394 32.3959 14.5006C32.5348 14.3617 32.9236 13.3893 33.0072 13.2781C33.0914 13.1675 33.0913 12.8063 32.9802 12.6675ZM17.0325 10.7502C17.1714 10.5278 17.5885 10.4443 18.2274 10.7502C18.9812 11.1108 19.8946 12.3063 19.8946 12.3063L19.1169 11.945L19.5058 12.6398L18.811 12.251L19.4222 13.1399L19.0057 13.0287L19.5617 13.9452C17.1437 12.5563 16.8937 10.9726 17.0325 10.7502ZM27.5349 12.1115L27.1184 12.4168C27.1184 12.4168 25.4511 12.6392 25.007 12.6116C24.5622 12.5839 24.2845 11.9168 24.2845 11.9168L23.368 11.3608L27.5349 12.1115ZM24.3951 16.0014C24.0892 16.2514 24.3675 16.8626 24.3675 16.8626C23.951 16.5573 23.4503 15.9737 23.8951 15.6401C24.3398 15.3066 27.5902 14.8901 27.5902 14.8901C27.5902 14.8901 24.7004 15.7513 24.3951 16.0014Z" fill="white"/>
<path d="M48.4417 18H46.3899V12.645L44.9075 16.1201H43.4841L42.0017 12.645V18H40.0574V10.0024H42.4529L44.2522 14.0146L46.0462 10.0024H48.4417V18ZM58.2654 14.0039C58.2654 15.2786 57.9002 16.292 57.1697 17.0439C56.4392 17.7923 55.4295 18.1665 54.1404 18.1665C52.8549 18.1665 51.8469 17.7923 51.1165 17.0439C50.386 16.292 50.0208 15.2786 50.0208 14.0039C50.0208 12.7184 50.386 11.7033 51.1165 10.9585C51.8469 10.2101 52.8549 9.83594 54.1404 9.83594C55.4223 9.83594 56.4303 10.2101 57.1643 10.9585C57.8984 11.7033 58.2654 12.7184 58.2654 14.0039ZM55.5315 16.0288C55.732 15.7853 55.8806 15.4989 55.9773 15.1694C56.074 14.8364 56.1223 14.4461 56.1223 13.9985C56.1223 13.5187 56.0668 13.1105 55.9558 12.7739C55.8448 12.4373 55.6998 12.1652 55.5208 11.9575C55.3382 11.7427 55.1269 11.5869 54.887 11.4902C54.6507 11.3936 54.4036 11.3452 54.1458 11.3452C53.8844 11.3452 53.6373 11.3918 53.4046 11.4849C53.1754 11.578 52.9641 11.7319 52.7708 11.9468C52.5917 12.1473 52.4449 12.4248 52.3303 12.7793C52.2193 13.1302 52.1638 13.5384 52.1638 14.0039C52.1638 14.4801 52.2175 14.8866 52.325 15.2231C52.436 15.5562 52.581 15.8283 52.76 16.0396C52.9391 16.2508 53.1485 16.4066 53.3884 16.5068C53.6284 16.6071 53.8808 16.6572 54.1458 16.6572C54.4107 16.6572 54.6632 16.6071 54.9031 16.5068C55.143 16.403 55.3525 16.2437 55.5315 16.0288ZM67.117 18H65.1297L61.7351 12.5107V18H59.8445V10.0024H62.3098L65.2263 14.584V10.0024H67.117V18ZM76.2317 17.5435C75.8736 17.6831 75.3992 17.8228 74.8084 17.9624C74.2175 18.0985 73.6285 18.1665 73.0413 18.1665C71.6806 18.1665 70.6153 17.7977 69.8455 17.0601C69.0756 16.3188 68.6907 15.2965 68.6907 13.9932C68.6907 12.7507 69.0792 11.7498 69.8562 10.9907C70.6332 10.228 71.7164 9.84668 73.1057 9.84668C73.6321 9.84668 74.1334 9.89502 74.6096 9.9917C75.0859 10.0848 75.6158 10.2728 76.1995 10.5557V12.4302H75.9685C75.8683 12.355 75.7215 12.2493 75.5281 12.1133C75.3347 11.9736 75.1485 11.8555 74.9695 11.7588C74.7618 11.6442 74.5183 11.5457 74.239 11.4634C73.9633 11.381 73.6697 11.3398 73.3582 11.3398C72.9929 11.3398 72.6617 11.3936 72.3645 11.501C72.0673 11.6084 71.8006 11.7731 71.5642 11.9951C71.3386 12.21 71.1596 12.4839 71.0271 12.8169C70.8982 13.1463 70.8338 13.5277 70.8338 13.9609C70.8338 14.8454 71.0683 15.5221 71.5374 15.9912C72.0064 16.4603 72.6993 16.6948 73.616 16.6948C73.6948 16.6948 73.7807 16.693 73.8738 16.6895C73.9705 16.6859 74.0582 16.6805 74.137 16.6733V15.105H72.5418V13.5957H76.2317V17.5435ZM85.8621 14.0039C85.8621 15.2786 85.4968 16.292 84.7664 17.0439C84.0359 17.7923 83.0261 18.1665 81.7371 18.1665C80.4516 18.1665 79.4436 17.7923 78.7132 17.0439C77.9827 16.292 77.6175 15.2786 77.6175 14.0039C77.6175 12.7184 77.9827 11.7033 78.7132 10.9585C79.4436 10.2101 80.4516 9.83594 81.7371 9.83594C83.019 9.83594 84.027 10.2101 84.761 10.9585C85.4951 11.7033 85.8621 12.7184 85.8621 14.0039ZM83.1282 16.0288C83.3287 15.7853 83.4773 15.4989 83.574 15.1694C83.6707 14.8364 83.719 14.4461 83.719 13.9985C83.719 13.5187 83.6635 13.1105 83.5525 12.7739C83.4415 12.4373 83.2965 12.1652 83.1175 11.9575C82.9348 11.7427 82.7236 11.5869 82.4837 11.4902C82.2473 11.3936 82.0003 11.3452 81.7425 11.3452C81.4811 11.3452 81.234 11.3918 81.0012 11.4849C80.7721 11.578 80.5608 11.7319 80.3675 11.9468C80.1884 12.1473 80.0416 12.4248 79.927 12.7793C79.816 13.1302 79.7605 13.5384 79.7605 14.0039C79.7605 14.4801 79.8142 14.8866 79.9216 15.2231C80.0327 15.5562 80.1777 15.8283 80.3567 16.0396C80.5357 16.2508 80.7452 16.4066 80.9851 16.5068C81.225 16.6071 81.4775 16.6572 81.7425 16.6572C82.0074 16.6572 82.2599 16.6071 82.4998 16.5068C82.7397 16.403 82.9492 16.2437 83.1282 16.0288ZM95.2185 14.0039C95.2185 15.2786 94.8533 16.292 94.1228 17.0439C93.3924 17.7923 92.3826 18.1665 91.0935 18.1665C89.808 18.1665 88.8001 17.7923 88.0696 17.0439C87.3391 16.292 86.9739 15.2786 86.9739 14.0039C86.9739 12.7184 87.3391 11.7033 88.0696 10.9585C88.8001 10.2101 89.808 9.83594 91.0935 9.83594C92.3754 9.83594 93.3834 10.2101 94.1175 10.9585C94.8515 11.7033 95.2185 12.7184 95.2185 14.0039ZM92.4846 16.0288C92.6852 15.7853 92.8338 15.4989 92.9304 15.1694C93.0271 14.8364 93.0755 14.4461 93.0755 13.9985C93.0755 13.5187 93.02 13.1105 92.909 12.7739C92.798 12.4373 92.6529 12.1652 92.4739 11.9575C92.2913 11.7427 92.08 11.5869 91.8401 11.4902C91.6038 11.3936 91.3567 11.3452 91.0989 11.3452C90.8375 11.3452 90.5904 11.3918 90.3577 11.4849C90.1285 11.578 89.9173 11.7319 89.7239 11.9468C89.5449 12.1473 89.398 12.4248 89.2835 12.7793C89.1725 13.1302 89.117 13.5384 89.117 14.0039C89.117 14.4801 89.1707 14.8866 89.2781 15.2231C89.3891 15.5562 89.5341 15.8283 89.7132 16.0396C89.8922 16.2508 90.1017 16.4066 90.3416 16.5068C90.5815 16.6071 90.8339 16.6572 91.0989 16.6572C91.3639 16.6572 91.6163 16.6071 91.8562 16.5068C92.0961 16.403 92.3056 16.2437 92.4846 16.0288ZM103.2 15.4863C103.2 16.2741 102.865 16.915 102.196 17.4092C101.53 17.8997 100.624 18.145 99.4778 18.145C98.8154 18.145 98.2371 18.0877 97.7429 17.9731C97.2524 17.855 96.7923 17.7064 96.3626 17.5273V15.6099H96.5882C97.0143 15.95 97.4905 16.2114 98.0169 16.394C98.5468 16.5767 99.0553 16.668 99.5423 16.668C99.6676 16.668 99.8323 16.6572 100.036 16.6357C100.24 16.6143 100.407 16.5785 100.536 16.5283C100.693 16.4639 100.822 16.3833 100.923 16.2866C101.026 16.1899 101.078 16.0467 101.078 15.8569C101.078 15.6815 101.003 15.5311 100.853 15.4058C100.706 15.2769 100.489 15.1784 100.203 15.1104C99.9021 15.0387 99.5834 14.9725 99.2468 14.9116C98.9138 14.8472 98.6005 14.7666 98.3069 14.6699C97.6337 14.4515 97.1485 14.1561 96.8513 13.7837C96.5577 13.4077 96.4109 12.9422 96.4109 12.3872C96.4109 11.6424 96.7439 11.0355 97.4099 10.5664C98.0795 10.0938 98.9389 9.85742 99.9881 9.85742C100.514 9.85742 101.034 9.90934 101.546 10.0132C102.061 10.1134 102.507 10.2406 102.883 10.3945V12.2368H102.663C102.341 11.979 101.945 11.7642 101.476 11.5923C101.01 11.4168 100.534 11.3291 100.047 11.3291C99.8753 11.3291 99.7034 11.3416 99.5315 11.3667C99.3632 11.3882 99.2003 11.4312 99.0427 11.4956C98.9031 11.5493 98.7831 11.6317 98.6829 11.7427C98.5826 11.8501 98.5325 11.9736 98.5325 12.1133C98.5325 12.3245 98.6131 12.4875 98.7742 12.6021C98.9353 12.7131 99.2397 12.8151 99.6873 12.9082C99.9809 12.9691 100.262 13.0282 100.531 13.0854C100.803 13.1427 101.095 13.2215 101.406 13.3218C102.018 13.5223 102.47 13.7962 102.76 14.1436C103.053 14.4873 103.2 14.9349 103.2 15.4863ZM110.403 18H104.618V10.0024H110.403V11.5493H106.67V12.9297H110.134V14.4766H106.67V16.4531H110.403V18Z" fill="white"/>
</svg>
