<svg width="112" height="121" viewBox="0 0 112 121" fill="none" xmlns="http://www.w3.org/2000/svg">
<path d="M74.2785 80.2006L52.0093 64.4183L69.2546 71.1183C71.2999 71.913 73.6243 71.2813 74.986 69.5607L90.5232 49.9292L74.2785 80.2006Z" fill="#9DBCD3"/>
<path d="M52.0093 64.418L48.6028 80.123L58.9759 69.288L52.0093 64.418Z" fill="#89A8BF"/>
<path d="M48.6028 80.123L39.8819 56.407L110.645 12.571L52.0093 64.418L48.6028 80.123Z" fill="#6791AF"/>
<path d="M39.882 56.4072L15.5 52.5L37.2923 50.984C38.7878 50.8799 40.2593 50.5523 41.6577 50.0119L64.3769 41.2332L39.882 56.4072Z" fill="#9DBCD3"/>
<path d="M110.645 12.5713L15.5 52.5001L39.8819 56.4073M110.645 12.5713L39.8819 56.4073M110.645 12.5713L52.0093 64.4184M110.645 12.5713L74.2785 80.2007L58.9631 69.3947M39.8819 56.4073L48.6028 80.1233M52.0093 64.4184L48.6028 80.1233M52.0093 64.4184L58.9631 69.3947M48.6028 80.1233L58.9631 69.3947" stroke="black" stroke-width="0.5"/>
<path d="M2.01252 99.9276C5.0524 92.8462 30.5479 92.5437 30.7903 95.8075C31.0328 99.0713 24.2265 106.229 19.0106 103.441C13.7948 100.653 38.7016 70.7834 41.4061 72.2289" stroke="black"/>
</svg>
