<svg width="656" height="656" viewBox="0 0 656 656" fill="none" xmlns="http://www.w3.org/2000/svg">
<path d="M573.439 0H81.9202C36.6769 0 0 36.6769 0 81.9202V573.439C0 618.682 36.6769 655.359 81.9202 655.359H573.439C618.682 655.359 655.359 618.682 655.359 573.439V81.9202C655.359 36.6769 618.682 0 573.439 0Z" fill="url(#paint0_linear_68_19)"/>
<path fill-rule="evenodd" clip-rule="evenodd" d="M151.04 81.9198H391.233V184.767C391.233 196.074 400.406 205.247 411.713 205.247H514.56V563.2C514.56 568.855 509.975 573.44 504.319 573.44H151.039C145.384 573.44 140.799 568.855 140.799 563.2V92.1597C140.799 86.5044 145.384 81.9198 151.04 81.9198ZM194.701 396.681H460.658V412.041H194.701V396.681ZM194.701 343.973H460.658V359.333H194.701V343.973ZM194.701 449.389H460.658V464.749H194.701V449.389ZM251.145 262.071C244.388 262.062 236.243 259.301 230.047 253.323C225.099 248.548 221.357 241.766 220.485 232.768C220.421 232.101 220.37 230.946 220.333 229.697C220.282 228.03 220.252 226.006 220.244 225.032C220.154 213.423 223.902 205.849 229.823 201.039C235.585 196.357 243.134 194.636 251.037 194.481C251.281 194.476 251.52 194.467 251.756 194.493C259.477 194.711 266.827 196.457 272.467 201.039C278.387 205.849 282.136 213.423 282.046 225.032C282.038 226.006 282.008 228.03 281.957 229.697C281.92 230.946 281.869 232.101 281.805 232.768C280.908 242.023 277.46 248.811 272.541 253.556C266.798 259.098 259.202 261.674 251.408 262.049C251.32 262.053 251.233 262.071 251.145 262.071ZM219.187 247.847C212.717 251.499 207.146 256.919 202.96 263.544C197.772 271.754 194.701 281.824 194.701 292.643V293.458C194.701 297.008 195.997 300.287 198.085 302.709C200.356 305.343 203.549 306.978 207.117 306.978H295.173C298.741 306.978 301.934 305.343 304.205 302.709C306.293 300.287 307.589 297.008 307.589 293.458V292.643C307.589 281.899 304.568 271.903 299.459 263.737C295.301 257.091 289.754 251.644 283.307 247.958C281.589 251.462 279.303 254.69 276.368 257.522C258.827 274.448 230.141 269.046 219.187 247.847ZM411.713 195.007C406.058 195.007 401.473 190.422 401.473 184.767V92.2444C401.473 86.5404 405.987 81.9203 411.713 81.9203C414.573 81.9203 417.158 83.0931 419.016 84.9836L511.559 177.527C515.558 181.526 515.559 188.009 511.56 192.008C509.561 194.007 506.94 195.007 504.319 195.007L411.713 195.007ZM327.541 294.901H459.423V310.261H327.541V294.901ZM375.097 258.515L388.867 262.875C386.753 270.564 383.244 276.268 378.327 280.006C373.425 283.727 367.179 285.596 359.622 285.596C350.278 285.596 342.59 282.399 336.574 276.023C330.557 269.629 327.541 260.892 327.541 249.826C327.541 238.105 330.574 229.007 336.623 222.516C342.672 216.04 350.622 212.794 360.491 212.794C369.097 212.794 376.097 215.335 381.474 220.434C384.687 223.434 387.08 227.761 388.687 233.4L374.605 236.761C373.786 233.105 372.048 230.22 369.392 228.106C366.753 225.991 363.54 224.942 359.769 224.942C354.557 224.942 350.311 226.811 347.065 230.565C343.819 234.302 342.196 240.368 342.196 248.761C342.196 257.662 343.786 264.006 346.999 267.777C350.196 271.564 354.36 273.449 359.475 273.449C363.261 273.449 366.507 272.252 369.228 269.843C371.95 267.449 373.9 263.662 375.097 258.515ZM419.031 284.399L393.867 213.991H409.293L427.096 266.105L444.341 213.991H459.423L434.21 284.399H419.031Z" fill="#FFFFFE"/>
<defs>
<linearGradient id="paint0_linear_68_19" x1="327.68" y1="0" x2="327.68" y2="655.359" gradientUnits="userSpaceOnUse">
<stop stop-color="#00838F" stop-opacity="0.9"/>
<stop offset="1" stop-color="#610870" stop-opacity="0.64"/>
</linearGradient>
</defs>
</svg>
