<svg width="67" height="28" viewBox="0 0 67 28" fill="none" xmlns="http://www.w3.org/2000/svg">
<rect width="67" height="28" fill="#F06292"/>
<path d="M23.9336 15.4783C23.1646 15.4823 22.4986 15.6668 21.9406 15.9423C21.7366 15.5348 21.5296 15.1763 21.4951 14.9098C21.4546 14.5988 21.4076 14.4128 21.4566 14.0423C21.5056 13.6718 21.7201 13.1468 21.7171 13.1073C21.7141 13.0678 21.6691 12.8793 21.2256 12.8758C20.7821 12.8728 20.4026 12.9613 20.3581 13.0783C20.3136 13.1953 20.2281 13.4588 20.1751 13.7338C20.0976 14.1358 19.2896 15.5703 18.8311 16.3203C18.6811 16.0273 18.5536 15.7693 18.5271 15.5653C18.4866 15.2543 18.4396 15.0683 18.4886 14.6978C18.5376 14.3273 18.7521 13.8023 18.7491 13.7628C18.7461 13.7233 18.7011 13.5348 18.2576 13.5313C17.8141 13.5283 17.4346 13.6168 17.3901 13.7338C17.3456 13.8508 17.2976 14.1243 17.2071 14.3893C17.1161 14.6538 16.0426 17.0463 15.7611 17.6668C15.6176 17.9828 15.4931 18.2368 15.4051 18.4098L15.4046 18.4088C15.4046 18.4088 15.3991 18.4203 15.3901 18.4398C15.3146 18.5873 15.2701 18.6688 15.2701 18.6688C15.2701 18.6688 15.2706 18.6698 15.2716 18.6718C15.2116 18.7803 15.1476 18.8808 15.1161 18.8808C15.0941 18.8808 15.0496 18.5923 15.1256 18.1963C15.2856 17.3663 15.6691 16.0723 15.6656 16.0273C15.6636 16.0043 15.7371 15.7788 15.4151 15.6608C15.1021 15.5463 14.9906 15.7373 14.9621 15.7378C14.9346 15.7383 14.9141 15.8053 14.9141 15.8053C14.9141 15.8053 15.2626 14.3498 14.2491 14.3498C13.6151 14.3498 12.7371 15.0433 12.3046 15.6718C12.0316 15.8208 11.4471 16.1398 10.8276 16.4803C10.5896 16.6113 10.3466 16.7448 10.1161 16.8718C10.1006 16.8543 10.0846 16.8373 10.0686 16.8198C8.83907 15.5083 6.56707 14.5808 6.66307 12.8173C6.69807 12.1763 6.92107 10.4883 11.0296 8.44127C14.3951 6.76427 17.0896 7.22577 17.5551 8.24827C18.2201 9.70977 16.1151 12.4253 12.6201 12.8173C11.2886 12.9668 10.5871 12.4503 10.4126 12.2583C10.2291 12.0558 10.2016 12.0468 10.1331 12.0848C10.0216 12.1468 10.0921 12.3253 10.1331 12.4318C10.2376 12.7033 10.6656 13.1848 11.3956 13.4248C12.0381 13.6358 13.6016 13.7513 15.4921 13.0198C17.6101 12.2008 19.2636 9.92177 18.7776 8.01727C18.2836 6.08027 15.0716 5.44327 12.0316 6.52327C10.2201 7.16627 8.26157 8.17527 6.85307 9.49227C5.17857 11.0583 4.91157 12.4218 5.02157 12.9913C5.41257 15.0153 8.20207 16.3333 9.31907 17.3098C9.26407 17.3403 9.21207 17.3688 9.16507 17.3948C8.60507 17.6718 6.47857 18.7848 5.94657 19.9603C5.34307 21.2938 6.04257 22.2508 6.50557 22.3798C7.94007 22.7788 9.41207 22.0608 10.2036 20.8808C10.9946 19.7013 10.8981 18.1648 10.5351 17.4638C10.5306 17.4553 10.5256 17.4468 10.5211 17.4378C10.6656 17.3523 10.8131 17.2653 10.9591 17.1793C11.2441 17.0118 11.5241 16.8558 11.7666 16.7238C11.6306 17.0958 11.5311 17.5423 11.4796 18.1868C11.4186 18.9438 11.7291 19.9223 12.1351 20.3073C12.3141 20.4768 12.5291 20.4808 12.6651 20.4808C13.1376 20.4808 13.3531 20.0878 13.5906 19.6228C13.8816 19.0528 14.1401 18.3888 14.1401 18.3888C14.1401 18.3888 13.8161 20.1818 14.6991 20.1818C15.0211 20.1818 15.3446 19.7643 15.4891 19.5518C15.4896 19.5543 15.4896 19.5553 15.4896 19.5553C15.4896 19.5553 15.4981 19.5413 15.5146 19.5138C15.5481 19.4628 15.5671 19.4303 15.5671 19.4303C15.5671 19.4303 15.5676 19.4268 15.5686 19.4208C15.6981 19.1963 15.9851 18.6843 16.4151 17.8398C16.9711 16.7488 17.5041 15.3818 17.5041 15.3818C17.5041 15.3818 17.5536 15.7158 17.7161 16.2688C17.8116 16.5938 18.0146 16.9533 18.1751 17.2983C18.0461 17.4773 17.9671 17.5798 17.9671 17.5798C17.9671 17.5798 17.9676 17.5818 17.9691 17.5853C17.8661 17.7223 17.7506 17.8698 17.6296 18.0138C17.1906 18.5363 16.6681 19.1333 16.5981 19.3053C16.5156 19.5083 16.5351 19.6573 16.6946 19.7778C16.8111 19.8653 17.0181 19.8793 17.2346 19.8648C17.6291 19.8383 17.9061 19.7403 18.0431 19.6808C18.2566 19.6053 18.5051 19.4868 18.7381 19.3153C19.1686 18.9988 19.4281 18.5463 19.4031 17.9463C19.3891 17.6158 19.2841 17.2883 19.1506 16.9793C19.1896 16.9233 19.2286 16.8663 19.2681 16.8093C19.9466 15.8173 20.4731 14.7273 20.4731 14.7273C20.4731 14.7273 20.5226 15.0613 20.6851 15.6143C20.7671 15.8938 20.9296 16.1993 21.0756 16.4983C20.4376 17.0168 20.0421 17.6193 19.9046 18.0143C19.6506 18.7453 19.8496 19.0763 20.2226 19.1518C20.3916 19.1858 20.6306 19.1083 20.8101 19.0323C21.0336 18.9583 21.3021 18.8348 21.5531 18.6503C21.9836 18.3338 22.3976 17.8908 22.3726 17.2913C22.3611 17.0183 22.2871 16.7473 22.1866 16.4873C22.7276 16.2618 23.4276 16.1368 24.3196 16.2408C26.2331 16.4643 26.6081 17.6588 26.5366 18.1588C26.4646 18.6588 26.0636 18.9338 25.9291 19.0168C25.7951 19.0998 25.7541 19.1288 25.7651 19.1903C25.7816 19.2798 25.8436 19.2768 25.9581 19.2573C26.1156 19.2308 26.9626 18.8508 26.9991 17.9278C27.0446 16.7548 25.9221 15.4678 23.9336 15.4783ZM9.18507 20.4503C8.55107 21.1418 7.66607 21.4028 7.28607 21.1828C6.87607 20.9453 7.03857 19.9273 7.81607 19.1933C8.29007 18.7463 8.90207 18.3343 9.30807 18.0808C9.40057 18.0253 9.53607 17.9438 9.70107 17.8448C9.72857 17.8293 9.74407 17.8208 9.74407 17.8208L9.74357 17.8198C9.77557 17.8008 9.80807 17.7813 9.84157 17.7608C10.1251 18.8053 9.85057 19.7248 9.18507 20.4503ZM13.8026 17.3118C13.5821 17.8498 13.1201 19.2268 12.8386 19.1528C12.5971 19.0893 12.4501 18.0428 12.7906 17.0128C12.9616 16.4943 13.3276 15.8748 13.5426 15.6343C13.8886 15.2473 14.2696 15.1208 14.3621 15.2778C14.4796 15.4778 13.9411 16.9743 13.8026 17.3118ZM17.6171 19.1318C17.5236 19.1808 17.4376 19.2113 17.3981 19.1878C17.3686 19.1703 17.4366 19.1058 17.4366 19.1058C17.4366 19.1058 17.9136 18.5923 18.1016 18.3588C18.2111 18.2228 18.3376 18.0613 18.4756 17.8813C18.4766 17.8993 18.4771 17.9173 18.4771 17.9348C18.4761 18.5498 17.8821 18.9648 17.6171 19.1318ZM20.5556 18.4618C20.4856 18.4123 20.4976 18.2518 20.7271 17.7513C20.8171 17.5548 21.0231 17.2243 21.3801 16.9083C21.4216 17.0383 21.4466 17.1628 21.4461 17.2788C21.4416 18.0528 20.8896 18.3418 20.5556 18.4618Z" fill="white"/>
<path d="M35.7915 13.3008C35.7603 12.9857 35.6261 12.7409 35.3892 12.5664C35.1522 12.3919 34.8306 12.3047 34.4243 12.3047C34.1483 12.3047 33.9152 12.3437 33.7251 12.4219C33.535 12.4974 33.3892 12.6029 33.2876 12.7383C33.1886 12.8737 33.1392 13.0273 33.1392 13.1992C33.134 13.3424 33.1639 13.4674 33.229 13.5742C33.2967 13.681 33.3892 13.7734 33.5063 13.8516C33.6235 13.9271 33.759 13.9935 33.9126 14.0508C34.0662 14.1055 34.2303 14.1523 34.4048 14.1914L35.1235 14.3633C35.4725 14.4414 35.7928 14.5456 36.0845 14.6758C36.3761 14.806 36.6287 14.9661 36.8423 15.1562C37.0558 15.3464 37.2212 15.5703 37.3384 15.8281C37.4582 16.0859 37.5194 16.3815 37.522 16.7148C37.5194 17.2044 37.3944 17.6289 37.147 17.9883C36.9022 18.3451 36.548 18.6224 36.0845 18.8203C35.6235 19.0156 35.0675 19.1133 34.4165 19.1133C33.7707 19.1133 33.2082 19.0143 32.729 18.8164C32.2524 18.6185 31.88 18.3255 31.6118 17.9375C31.3462 17.5469 31.2069 17.0638 31.1938 16.4883H32.8306C32.8488 16.7565 32.9256 16.9805 33.061 17.1602C33.1991 17.3372 33.3826 17.4714 33.6118 17.5625C33.8436 17.651 34.1053 17.6953 34.397 17.6953C34.6834 17.6953 34.9321 17.6536 35.1431 17.5703C35.3566 17.487 35.522 17.3711 35.6392 17.2227C35.7563 17.0742 35.8149 16.9036 35.8149 16.7109C35.8149 16.5312 35.7616 16.3802 35.6548 16.2578C35.5506 16.1354 35.397 16.0312 35.1938 15.9453C34.9933 15.8594 34.7472 15.7812 34.4556 15.7109L33.5845 15.4922C32.91 15.3281 32.3774 15.0716 31.9868 14.7227C31.5962 14.3737 31.4022 13.9036 31.4048 13.3125C31.4022 12.8281 31.5311 12.4049 31.7915 12.043C32.0545 11.681 32.4152 11.3984 32.8735 11.1953C33.3319 10.9922 33.8527 10.8906 34.436 10.8906C35.0298 10.8906 35.548 10.9922 35.9907 11.1953C36.436 11.3984 36.7824 11.681 37.0298 12.043C37.2772 12.4049 37.4048 12.8242 37.4126 13.3008H35.7915ZM39.856 19H38.0435L40.8052 11H42.9849L45.7427 19H43.9302L41.9263 12.8281H41.8638L39.856 19ZM39.7427 15.8555H44.0239V17.1758H39.7427V15.8555ZM50.8628 13.3008C50.8315 12.9857 50.6974 12.7409 50.4604 12.5664C50.2235 12.3919 49.9019 12.3047 49.4956 12.3047C49.2196 12.3047 48.9865 12.3437 48.7964 12.4219C48.6063 12.4974 48.4604 12.6029 48.3589 12.7383C48.2599 12.8737 48.2104 13.0273 48.2104 13.1992C48.2052 13.3424 48.2352 13.4674 48.3003 13.5742C48.368 13.681 48.4604 13.7734 48.5776 13.8516C48.6948 13.9271 48.8302 13.9935 48.9839 14.0508C49.1375 14.1055 49.3016 14.1523 49.4761 14.1914L50.1948 14.3633C50.5438 14.4414 50.8641 14.5456 51.1558 14.6758C51.4474 14.806 51.7 14.9661 51.9136 15.1562C52.1271 15.3464 52.2925 15.5703 52.4097 15.8281C52.5295 16.0859 52.5907 16.3815 52.5933 16.7148C52.5907 17.2044 52.4657 17.6289 52.2183 17.9883C51.9735 18.3451 51.6193 18.6224 51.1558 18.8203C50.6948 19.0156 50.1388 19.1133 49.4878 19.1133C48.842 19.1133 48.2795 19.0143 47.8003 18.8164C47.3237 18.6185 46.9513 18.3255 46.6831 17.9375C46.4175 17.5469 46.2782 17.0638 46.2651 16.4883H47.9019C47.9201 16.7565 47.9969 16.9805 48.1323 17.1602C48.2703 17.3372 48.4539 17.4714 48.6831 17.5625C48.9149 17.651 49.1766 17.6953 49.4683 17.6953C49.7547 17.6953 50.0034 17.6536 50.2144 17.5703C50.4279 17.487 50.5933 17.3711 50.7104 17.2227C50.8276 17.0742 50.8862 16.9036 50.8862 16.7109C50.8862 16.5312 50.8328 16.3802 50.7261 16.2578C50.6219 16.1354 50.4683 16.0312 50.2651 15.9453C50.0646 15.8594 49.8185 15.7812 49.5269 15.7109L48.6558 15.4922C47.9813 15.3281 47.4487 15.0716 47.0581 14.7227C46.6675 14.3737 46.4735 13.9036 46.4761 13.3125C46.4735 12.8281 46.6024 12.4049 46.8628 12.043C47.1258 11.681 47.4865 11.3984 47.9448 11.1953C48.4032 10.9922 48.924 10.8906 49.5073 10.8906C50.1011 10.8906 50.6193 10.9922 51.062 11.1953C51.5073 11.3984 51.8537 11.681 52.1011 12.043C52.3485 12.4049 52.4761 12.8242 52.4839 13.3008H50.8628ZM58.0708 13.3008C58.0396 12.9857 57.9054 12.7409 57.6685 12.5664C57.4315 12.3919 57.1099 12.3047 56.7036 12.3047C56.4276 12.3047 56.1945 12.3437 56.0044 12.4219C55.8143 12.4974 55.6685 12.6029 55.5669 12.7383C55.4679 12.8737 55.4185 13.0273 55.4185 13.1992C55.4132 13.3424 55.4432 13.4674 55.5083 13.5742C55.576 13.681 55.6685 13.7734 55.7856 13.8516C55.9028 13.9271 56.0382 13.9935 56.1919 14.0508C56.3455 14.1055 56.5096 14.1523 56.6841 14.1914L57.4028 14.3633C57.7518 14.4414 58.0721 14.5456 58.3638 14.6758C58.6554 14.806 58.908 14.9661 59.1216 15.1562C59.3351 15.3464 59.5005 15.5703 59.6177 15.8281C59.7375 16.0859 59.7987 16.3815 59.8013 16.7148C59.7987 17.2044 59.6737 17.6289 59.4263 17.9883C59.1815 18.3451 58.8273 18.6224 58.3638 18.8203C57.9028 19.0156 57.3468 19.1133 56.6958 19.1133C56.05 19.1133 55.4875 19.0143 55.0083 18.8164C54.5317 18.6185 54.1593 18.3255 53.8911 17.9375C53.6255 17.5469 53.4862 17.0638 53.4731 16.4883H55.1099C55.1281 16.7565 55.2049 16.9805 55.3403 17.1602C55.4784 17.3372 55.6619 17.4714 55.8911 17.5625C56.1229 17.651 56.3846 17.6953 56.6763 17.6953C56.9627 17.6953 57.2114 17.6536 57.4224 17.5703C57.6359 17.487 57.8013 17.3711 57.9185 17.2227C58.0356 17.0742 58.0942 16.9036 58.0942 16.7109C58.0942 16.5312 58.0409 16.3802 57.9341 16.2578C57.8299 16.1354 57.6763 16.0312 57.4731 15.9453C57.2726 15.8594 57.0265 15.7812 56.7349 15.7109L55.8638 15.4922C55.1893 15.3281 54.6567 15.0716 54.2661 14.7227C53.8755 14.3737 53.6815 13.9036 53.6841 13.3125C53.6815 12.8281 53.8104 12.4049 54.0708 12.043C54.3338 11.681 54.6945 11.3984 55.1528 11.1953C55.6112 10.9922 56.132 10.8906 56.7153 10.8906C57.3091 10.8906 57.8273 10.9922 58.27 11.1953C58.7153 11.3984 59.0617 11.681 59.3091 12.043C59.5565 12.4049 59.6841 12.8242 59.6919 13.3008H58.0708Z" fill="white"/>
</svg>
